# Blender v2.92.0 OBJ File: ''
# www.blender.org
mtllib Ebene.mtl
o Cube
v 10.000000 0.460300 -10.000000
v 10.000000 -0.460300 -10.000000
v 10.000000 0.460300 10.000000
v 10.000000 -0.460300 10.000000
v -10.000000 0.460300 -10.000000
v -10.000000 -0.460300 -10.000000
v -10.000000 0.460300 10.000000
v -10.000000 -0.460300 10.000000
v 10.000000 0.460300 10.000000
v -10.000000 0.460300 10.000000
v 10.000000 0.460300 -10.000000
v -10.000000 0.460300 -10.000000
v 9.358631 0.460300 -9.358631
v 9.358631 0.460300 9.358631
v -9.358631 0.460300 -9.358631
v -9.358631 0.460300 9.358631
v 9.358631 -0.226770 -9.358631
v 9.358631 -0.226770 9.358631
v -9.358631 -0.226770 -9.358631
v -9.358631 -0.226770 9.358631
vt 0.875000 0.500000
vt 0.875000 0.750000
vt 0.875000 0.750000
vt 0.875000 0.500000
vt 0.375000 0.750000
vt 0.625000 0.750000
vt 0.625000 1.000000
vt 0.375000 1.000000
vt 0.375000 0.000000
vt 0.625000 0.000000
vt 0.625000 0.250000
vt 0.375000 0.250000
vt 0.125000 0.500000
vt 0.375000 0.500000
vt 0.125000 0.750000
vt 0.625000 0.500000
vt 0.625000 0.750000
vt 0.875000 0.750000
vt 0.625000 0.500000
vt 0.875000 0.500000
vt 0.625000 0.500000
vt 0.875000 0.500000
vt 0.625000 0.500000
vt 0.625000 0.750000
vt 0.875000 0.750000
vt 0.625000 0.750000
vn 0.0000 1.0000 0.0000
vn 0.0000 0.0000 1.0000
vn -1.0000 0.0000 0.0000
vn 0.0000 -1.0000 0.0000
vn 1.0000 0.0000 0.0000
vn 0.0000 0.0000 -1.0000
usemtl Material
s off
f 5/1/1 7/2/1 16/3/1 15/4/1
f 4/5/2 9/6/2 10/7/2 8/8/2
f 8/9/3 10/10/3 12/11/3 6/12/3
f 6/13/4 2/14/4 4/5/4 8/15/4
f 2/14/5 11/16/5 9/6/5 4/5/5
f 6/12/6 12/11/6 11/16/6 2/14/6
f 3/17/2 7/2/2 10/18/2 9/6/2
f 1/19/2 3/17/2 9/6/2 11/16/2
f 7/2/2 5/1/2 12/20/2 10/18/2
f 5/1/2 1/19/2 11/16/2 12/20/2
f 13/21/2 15/4/2 19/22/2 17/23/2
f 7/2/1 3/17/1 14/24/1 16/3/1
f 1/19/1 5/1/1 15/4/1 13/21/1
f 3/17/1 1/19/1 13/21/1 14/24/1
f 17/23/1 19/22/1 20/25/1 18/26/1
f 14/24/3 13/21/3 17/23/3 18/26/3
f 15/4/5 16/3/5 20/25/5 19/22/5
f 16/3/6 14/24/6 18/26/6 20/25/6
