# Blender v2.92.0 OBJ File: 'menekinblend.blend'
# www.blender.org
mtllib menekin.mtl
o Cube
v 1.000000 1.000000 -1.000000
v 1.000000 -1.000000 -1.000000
v 1.000000 1.000000 1.000000
v 1.000000 -1.000000 1.000000
v -1.000000 1.000000 -1.000000
v -1.000000 -1.000000 -1.000000
v -1.000000 1.000000 1.000000
v -1.000000 -1.000000 1.000000
v 0.863285 -0.998538 -1.000000
v -0.863285 -0.998538 -1.000000
v 0.863285 0.728031 -1.000000
v -0.863285 0.728031 -1.000000
v 0.387144 -0.442667 -2.175955
v -0.387144 -0.442667 -2.175955
v 0.387144 0.331621 -2.175955
v -0.387144 0.331621 -2.175955
v 1.000000 1.000000 -1.000000
v 1.000000 -1.000000 -1.000000
v 1.000000 1.000000 1.000000
v 1.000000 -1.000000 1.000000
v 1.000000 0.892421 -0.767010
v 1.000000 0.489486 -0.767010
v 1.000000 0.892421 -0.364075
v 1.000000 0.489486 -0.364075
v 1.327431 0.851094 -0.725683
v 1.327431 0.530812 -0.725683
v 1.327431 0.851094 -0.405401
v 1.327431 0.530812 -0.405401
v -1.000000 1.000000 -1.000000
v -1.000000 -1.000000 -1.000000
v -1.000000 1.000000 1.000000
v -1.000000 -1.000000 1.000000
v 1.000000 1.000000 -1.000000
v 1.000000 -1.000000 -1.000000
v 1.000000 1.000000 1.000000
v 1.000000 -1.000000 1.000000
v -0.863285 -0.998538 -1.000000
v 0.863285 -0.998538 -1.000000
v -0.863285 0.728031 -1.000000
v 0.863285 0.728031 -1.000000
v -0.387144 -0.442667 -2.175955
v 0.387144 -0.442667 -2.175955
v -0.387144 0.331621 -2.175955
v 0.387144 0.331621 -2.175955
v -1.000000 1.000000 -1.000000
v -1.000000 -1.000000 -1.000000
v -1.000000 1.000000 1.000000
v -1.000000 -1.000000 1.000000
v -1.000000 0.892421 -0.767010
v -1.000000 0.489486 -0.767010
v -1.000000 0.892421 -0.364075
v -1.000000 0.489486 -0.364075
v -1.327431 0.851094 -0.725683
v -1.327431 0.530812 -0.725683
v -1.327431 0.851094 -0.405401
v -1.327431 0.530812 -0.405401
vt 0.625000 0.500000
vt 0.875000 0.500000
vt 0.875000 0.750000
vt 0.625000 0.750000
vt 0.375000 0.750000
vt 0.625000 1.000000
vt 0.375000 1.000000
vt 0.375000 0.000000
vt 0.625000 0.000000
vt 0.625000 0.250000
vt 0.375000 0.250000
vt 0.125000 0.500000
vt 0.375000 0.500000
vt 0.125000 0.750000
vt 0.375000 0.750000
vt 0.625000 0.750000
vt 0.125000 0.500000
vt 0.375000 0.500000
vt 0.125000 0.500000
vt 0.375000 0.500000
vt 0.625000 0.500000
vt 0.875000 0.500000
vt 0.625000 0.250000
vt 0.375000 0.250000
vt 0.375000 0.250000
vt 0.625000 0.250000
vt 0.625000 0.500000
vt 0.875000 0.500000
vt 0.625000 0.500000
vt 0.625000 0.750000
vt 0.625000 0.500000
vt 0.375000 0.500000
vt 0.375000 0.750000
vt 0.375000 0.500000
vt 0.375000 0.500000
vt 0.375000 0.750000
vt 0.625000 0.500000
vt 0.625000 0.750000
vt 0.625000 0.500000
vt 0.625000 0.750000
vt 0.875000 0.750000
vt 0.875000 0.500000
vt 0.375000 0.750000
vt 0.375000 1.000000
vt 0.625000 1.000000
vt 0.375000 0.000000
vt 0.375000 0.250000
vt 0.625000 0.250000
vt 0.625000 0.000000
vt 0.125000 0.500000
vt 0.125000 0.750000
vt 0.375000 0.500000
vt 0.625000 0.750000
vt 0.375000 0.750000
vt 0.375000 0.500000
vt 0.125000 0.500000
vt 0.375000 0.500000
vt 0.125000 0.500000
vt 0.875000 0.500000
vt 0.625000 0.500000
vt 0.375000 0.250000
vt 0.625000 0.250000
vt 0.375000 0.250000
vt 0.625000 0.500000
vt 0.625000 0.250000
vt 0.875000 0.500000
vt 0.625000 0.500000
vt 0.625000 0.500000
vt 0.625000 0.750000
vt 0.375000 0.500000
vt 0.375000 0.750000
vt 0.375000 0.750000
vt 0.375000 0.500000
vt 0.375000 0.500000
vt 0.625000 0.750000
vt 0.625000 0.500000
vn 0.0000 1.0000 0.0000
vn 0.0000 0.0000 1.0000
vn -1.0000 0.0000 0.0000
vn 0.0000 -1.0000 0.0000
vn 0.0000 0.0000 -1.0000
vn 0.0000 -0.9041 -0.4274
vn 0.0000 0.9476 -0.3194
vn 0.9269 0.0000 -0.3753
vn -0.9269 0.0000 -0.3753
vn 1.0000 0.0000 0.0000
vn 0.1252 -0.9921 0.0000
vn 0.1252 0.0000 0.9921
vn 0.1252 0.9921 0.0000
vn 0.1252 0.0000 -0.9921
vn -0.1252 -0.9921 0.0000
vn -0.1252 0.0000 0.9921
vn -0.1252 0.9921 0.0000
vn -0.1252 0.0000 -0.9921
usemtl Material
s off
f 1/1/1 5/2/1 7/3/1 3/4/1
f 4/5/2 3/4/2 7/6/2 8/7/2
f 8/8/3 7/9/3 5/10/3 6/11/3
f 6/12/4 2/13/4 4/5/4 8/14/4
f 3/4/2 4/5/2 20/15/2 19/16/2
f 2/13/5 6/12/5 10/17/5 9/18/5
f 9/18/6 10/17/6 14/19/6 13/20/6
f 5/2/5 1/1/5 11/21/5 12/22/5
f 1/1/5 2/13/5 9/18/5 11/21/5
f 6/11/5 5/10/5 12/23/5 10/24/5
f 14/25/5 16/26/5 15/27/5 13/20/5
f 12/22/7 11/21/7 15/27/7 16/28/7
f 11/21/8 9/18/8 13/20/8 15/27/8
f 10/24/9 12/23/9 16/26/9 14/25/9
f 17/29/10 19/16/10 23/30/10 21/31/10
f 2/13/2 1/1/2 17/29/2 18/32/2
f 4/5/2 2/13/2 18/32/2 20/15/2
f 1/1/2 3/4/2 19/16/2 17/29/2
f 24/33/11 22/34/11 26/35/11 28/36/11
f 18/32/10 17/29/10 21/31/10 22/34/10
f 20/15/10 18/32/10 22/34/10 24/33/10
f 19/16/10 20/15/10 24/33/10 23/30/10
f 26/35/10 25/37/10 27/38/10 28/36/10
f 23/30/12 24/33/12 28/36/12 27/38/12
f 21/31/13 23/30/13 27/38/13 25/37/13
f 22/34/14 21/31/14 25/37/14 26/35/14
f 29/39/1 31/40/1 35/41/1 33/42/1
f 32/43/2 36/44/2 35/45/2 31/40/2
f 36/46/10 34/47/10 33/48/10 35/49/10
f 34/50/4 36/51/4 32/43/4 30/52/4
f 31/40/2 47/53/2 48/54/2 32/43/2
f 30/52/5 37/55/5 38/56/5 34/50/5
f 37/55/6 41/57/6 42/58/6 38/56/6
f 33/42/5 40/59/5 39/60/5 29/39/5
f 29/39/5 39/60/5 37/55/5 30/52/5
f 34/47/5 38/61/5 40/62/5 33/48/5
f 42/63/5 41/57/5 43/64/5 44/65/5
f 40/59/7 44/66/7 43/64/7 39/60/7
f 39/60/9 43/64/9 41/57/9 37/55/9
f 38/61/8 42/63/8 44/65/8 40/62/8
f 45/67/3 49/68/3 51/69/3 47/53/3
f 30/52/2 46/70/2 45/67/2 29/39/2
f 32/43/2 48/54/2 46/70/2 30/52/2
f 29/39/2 45/67/2 47/53/2 31/40/2
f 52/71/15 56/72/15 54/73/15 50/74/15
f 46/70/3 50/74/3 49/68/3 45/67/3
f 48/54/3 52/71/3 50/74/3 46/70/3
f 47/53/3 51/69/3 52/71/3 48/54/3
f 54/73/3 56/72/3 55/75/3 53/76/3
f 51/69/16 55/75/16 56/72/16 52/71/16
f 49/68/17 53/76/17 55/75/17 51/69/17
f 50/74/18 54/73/18 53/76/18 49/68/18
